<svg version="1.1" id="Layer_1" xmlns="http://www.w3.org/2000/svg" xmlns:xlink="http://www.w3.org/1999/xlink" x="0px" y="0px"
	 width="100%" viewBox="0 0 3241 1665" enable-background="new 0 0 3241 1665" xml:space="preserve">
<path fill="#000000" opacity="1.000000" stroke="none" 
	d="
M1668.000000,1.999985 
	C2193.286377,2.000000 2718.572754,2.000000 3243.929688,2.000000 
	C3243.929688,557.236694 3243.929688,1112.473389 3243.929688,1667.854980 
	C2163.526611,1667.854980 1083.053101,1667.854980 2.289858,1667.854980 
	C2.289858,1112.909668 2.289858,557.819153 2.289858,2.000000 
	C350.058411,2.000000 698.117371,2.000000 1047.037964,2.733056 
	C1044.808350,4.578464 1041.772339,5.887687 1038.617310,6.772696 
	C1006.434509,15.800013 982.424377,35.324215 966.574219,64.422043 
	C951.512878,92.071579 944.706665,122.111580 943.413574,153.852814 
	C942.698486,154.729843 942.565491,155.324570 942.579102,156.909943 
	C942.422852,162.508041 942.341736,167.173462 942.341431,171.838867 
	C942.331726,311.491669 942.330078,451.144501 942.326050,590.797302 
	C942.325928,594.130249 942.472900,597.474426 942.243713,600.792053 
	C942.103088,602.827332 941.375732,604.822144 940.911865,606.835083 
	C940.169434,607.207031 939.427063,607.579041 938.684631,607.950989 
	C937.869934,606.471069 937.326233,604.733887 936.201111,603.548706 
	C904.480652,570.137329 870.805359,538.949890 832.804138,512.671082 
	C797.798218,488.463623 760.666504,468.554321 719.747192,456.198853 
	C692.418274,447.946930 664.522217,442.614746 636.114563,439.935608 
	C618.282043,438.253815 600.464905,435.718262 582.597168,435.256348 
	C552.358093,434.474457 522.183411,435.351196 492.039276,439.560486 
	C473.356934,442.169250 454.826355,445.185944 436.574005,449.653015 
	C352.395325,470.254700 281.267090,512.886597 222.373795,576.460022 
	C184.355087,617.499939 154.928711,663.903992 132.992706,715.184753 
	C111.126488,766.302490 96.804237,819.581360 89.690392,874.642944 
	C85.603897,906.272644 82.072487,938.090210 80.735840,969.925903 
	C79.425728,1001.129578 80.931198,1032.470703 81.720909,1063.738281 
	C82.544945,1096.364746 86.644341,1128.694092 92.186325,1160.830688 
	C104.901375,1234.562134 127.154617,1305.067749 163.443222,1370.813354 
	C190.716278,1420.225098 224.531509,1464.618286 266.620270,1502.256348 
	C314.354248,1544.942749 368.577148,1576.742188 430.242126,1594.974854 
	C460.806152,1604.011719 491.706848,1611.709717 524.137695,1612.379883 
	C524.386230,1612.595703 525.318115,1612.878052 525.318115,1612.878052 
	C525.318115,1612.878052 526.273865,1612.724487 527.155396,1612.795410 
	C559.276672,1614.785767 590.478516,1614.154663 621.473206,1609.867188 
	C639.076416,1607.432373 656.619019,1604.158325 673.943787,1600.191528 
	C715.148621,1590.756836 753.653931,1574.408447 789.957703,1552.861938 
	C839.662354,1523.361938 881.986023,1484.992920 921.339539,1443.088501 
	C927.577148,1436.446655 933.749268,1429.743286 939.951599,1423.068237 
	C940.743164,1423.370483 941.534729,1423.672729 942.326294,1423.974854 
	C942.326294,1427.494385 942.236877,1431.016602 942.341919,1434.532959 
	C942.788452,1449.484375 942.548950,1464.503662 943.938232,1479.369385 
	C946.445618,1506.198608 953.919922,1531.640381 968.759521,1554.473755 
	C988.368652,1584.645996 1016.090637,1604.159424 1050.958130,1611.403687 
	C1073.025146,1615.988525 1095.912842,1615.184937 1118.119873,1609.044800 
	C1150.705688,1600.035034 1176.291748,1581.453247 1193.628540,1552.397217 
	C1210.089966,1524.808105 1216.071655,1494.318970 1216.601074,1462.160522 
	C1217.336060,1461.279663 1217.468872,1460.678833 1217.432861,1459.084717 
	C1217.580322,1450.486572 1217.663696,1442.821655 1217.663818,1435.156860 
	C1217.670044,1031.556396 1217.693848,627.955933 1217.612549,224.355484 
	C1217.607300,198.394409 1216.871826,172.431595 1216.310425,146.473160 
	C1215.890015,127.041412 1212.468750,108.043365 1206.391357,89.629753 
	C1193.657715,51.048771 1169.720947,22.854715 1130.392944,9.373330 
	C1126.306274,7.972461 1122.035645,7.090468 1118.002075,5.566316 
	C1117.025024,5.197122 1116.651123,3.231510 1116.000000,2.000006 
	C1276.725464,2.000000 1437.450806,2.000000 1598.932617,2.695035 
	C1596.139038,5.030350 1592.710327,7.038363 1589.020264,8.252093 
	C1562.235229,17.061995 1541.868408,33.931286 1526.830811,57.499165 
	C1517.047363,72.832443 1510.785034,89.648750 1506.470337,107.236504 
	C1500.561768,131.322113 1498.404297,155.888550 1498.387695,180.564728 
	C1498.241699,397.227905 1498.297607,613.891235 1498.297363,830.554504 
	C1498.296997,1035.884644 1498.268066,1241.214722 1498.350586,1446.544922 
	C1498.359619,1468.918945 1500.507935,1491.133301 1506.093262,1512.877563 
	C1515.537109,1549.644287 1534.677368,1579.399292 1568.636475,1598.196655 
	C1585.875488,1607.739014 1604.570068,1612.028809 1624.115967,1613.264893 
	C1652.403564,1615.053711 1679.281250,1610.221924 1703.938965,1595.853271 
	C1738.865723,1575.500610 1758.953979,1544.491943 1767.821045,1505.569580 
	C1772.966064,1482.985596 1774.208130,1460.104492 1773.751587,1437.045898 
	C1773.670410,1432.946411 1774.207275,1428.834717 1774.605347,1422.333252 
	C1778.536011,1426.215454 1780.642456,1428.159546 1782.595947,1430.246704 
	C1803.311646,1452.376465 1823.514771,1475.011963 1844.820190,1496.557617 
	C1873.849976,1525.914551 1907.185425,1549.843018 1943.944214,1568.516479 
	C2007.031494,1600.564575 2074.879395,1613.164062 2145.001953,1613.651978 
	C2170.541992,1613.829834 2196.335449,1611.641479 2221.624268,1607.901245 
	C2323.943848,1592.768188 2410.357178,1546.617676 2480.650635,1470.877808 
	C2524.220703,1423.932007 2556.121826,1369.480957 2580.268799,1310.339478 
	C2615.226074,1224.719238 2630.189697,1135.057373 2633.451416,1043.194702 
	C2634.383545,1016.937195 2633.460693,990.559448 2632.196289,964.294128 
	C2631.012939,939.708069 2629.057861,915.097778 2626.026611,890.673889 
	C2617.891602,825.126953 2601.119385,761.885254 2573.267578,701.787292 
	C2550.390381,652.422913 2521.454102,607.040222 2483.551025,567.833313 
	C2419.427490,501.503906 2341.324707,461.088196 2250.930176,443.886475 
	C2206.805908,435.489838 2162.296631,433.825531 2117.542725,435.944550 
	C2075.401611,437.939789 2034.066895,444.401581 1993.861450,457.499878 
	C1942.056519,474.377106 1897.198853,503.498291 1854.546875,536.476990 
	C1829.727661,555.667358 1806.731812,576.915222 1784.644409,599.172974 
	C1782.014771,601.822876 1779.870728,605.619324 1773.703369,605.644897 
	C1773.703369,600.311707 1773.703491,595.422852 1773.703369,590.533997 
	C1773.703003,447.869537 1773.687622,305.205109 1773.721191,162.540665 
	C1773.725586,144.134354 1771.906616,125.910866 1767.590698,108.055435 
	C1755.259888,57.041389 1727.312012,20.132004 1674.390015,6.059547 
	C1672.064575,5.441164 1670.121338,3.385911 1668.000000,1.999985 
M3141.851318,505.319458 
	C3125.338867,471.810516 3099.755615,448.090149 3064.632568,435.340332 
	C3042.791992,427.412018 3020.145752,425.078033 2996.840820,427.526062 
	C2941.538818,433.335327 2903.663818,462.045410 2882.809814,513.268188 
	C2871.318359,541.493103 2868.507324,571.437134 2868.479980,601.461792 
	C2868.244141,859.731567 2868.306396,1118.001587 2868.397461,1376.271606 
	C2868.406006,1400.899658 2869.213379,1425.527588 2869.653076,1450.155518 
	C2870.024414,1470.965088 2873.695801,1491.238403 2880.311768,1510.911133 
	C2892.247070,1546.400513 2913.430176,1574.673828 2946.943604,1592.377808 
	C2973.678223,1606.500610 3002.440430,1610.136963 3032.284912,1606.350586 
	C3083.897461,1599.802612 3120.095215,1572.110962 3141.990723,1525.519531 
	C3156.175293,1495.336426 3159.492676,1462.733643 3159.522217,1429.984497 
	C3159.763916,1162.717041 3159.685059,895.449097 3159.603516,628.181335 
	C3159.597900,609.885620 3158.960449,591.583923 3158.304688,573.296204 
	C3157.471924,550.068176 3152.172607,527.839417 3141.851318,505.319458 
M3159.579590,156.384644 
	C3158.963867,146.101273 3158.833008,135.761200 3157.638916,125.545433 
	C3154.376953,97.639328 3144.258789,72.680244 3124.012451,52.603897 
	C3094.391113,23.231560 3058.140625,9.174294 3016.870361,8.521102 
	C2988.004395,8.064235 2960.709961,15.267361 2936.192627,30.922873 
	C2904.458496,51.186604 2881.117676,78.117004 2872.517090,115.726387 
	C2865.765137,145.251083 2867.550293,174.629532 2876.789795,203.375412 
	C2882.900635,222.387314 2893.475830,238.843506 2908.135498,252.578766 
	C2958.314697,299.593536 3036.301514,302.593964 3086.234863,275.982758 
	C3121.806152,257.025696 3146.342285,228.959061 3155.078125,188.789581 
	C3157.260986,178.752853 3158.031006,168.408905 3159.579590,156.384644 
z"/>
<path fill="#009933" opacity="1.000000" stroke="none" 
	d="
M1216.270386,1462.500488 
	C1216.071655,1494.318970 1210.089966,1524.808105 1193.628540,1552.397217 
	C1176.291748,1581.453247 1150.705688,1600.035034 1118.119873,1609.044800 
	C1095.912842,1615.184937 1073.025146,1615.988525 1050.958130,1611.403687 
	C1016.090637,1604.159424 988.368652,1584.645996 968.759521,1554.473755 
	C953.919922,1531.640381 946.445618,1506.198608 943.938232,1479.369385 
	C942.548950,1464.503662 942.788452,1449.484375 942.341919,1434.532959 
	C942.236877,1431.016602 942.326294,1427.494385 942.326294,1423.974854 
	C941.534729,1423.672729 940.743164,1423.370483 939.951599,1423.068237 
	C933.749268,1429.743286 927.577148,1436.446655 921.339539,1443.088501 
	C881.986023,1484.992920 839.662354,1523.361938 789.957703,1552.861938 
	C753.653931,1574.408447 715.148621,1590.756836 673.943787,1600.191528 
	C656.619019,1604.158325 639.076416,1607.432373 621.473206,1609.867188 
	C590.478516,1614.154663 559.276672,1614.785767 526.577087,1612.578369 
	C524.707947,1612.248291 524.298523,1612.206055 523.889160,1612.163940 
	C491.706848,1611.709717 460.806152,1604.011719 430.242126,1594.974854 
	C368.577148,1576.742188 314.354248,1544.942749 266.620270,1502.256348 
	C224.531509,1464.618286 190.716278,1420.225098 163.443222,1370.813354 
	C127.154617,1305.067749 104.901375,1234.562134 92.186325,1160.830688 
	C86.644341,1128.694092 82.544945,1096.364746 81.720909,1063.738281 
	C80.931198,1032.470703 79.425728,1001.129578 80.735840,969.925903 
	C82.072487,938.090210 85.603897,906.272644 89.690392,874.642944 
	C96.804237,819.581360 111.126488,766.302490 132.992706,715.184753 
	C154.928711,663.903992 184.355087,617.499939 222.373795,576.460022 
	C281.267090,512.886597 352.395325,470.254700 436.574005,449.653015 
	C454.826355,445.185944 473.356934,442.169250 492.039276,439.560486 
	C522.183411,435.351196 552.358093,434.474457 582.597168,435.256348 
	C600.464905,435.718262 618.282043,438.253815 636.114563,439.935608 
	C664.522217,442.614746 692.418274,447.946930 719.747192,456.198853 
	C760.666504,468.554321 797.798218,488.463623 832.804138,512.671082 
	C870.805359,538.949890 904.480652,570.137329 936.201111,603.548706 
	C937.326233,604.733887 937.869934,606.471069 938.684631,607.950989 
	C939.427063,607.579041 940.169434,607.207031 940.911865,606.835083 
	C941.375732,604.822144 942.103088,602.827332 942.243713,600.792053 
	C942.472900,597.474426 942.325928,594.130249 942.326050,590.797302 
	C942.330078,451.144501 942.331726,311.491669 942.341431,171.838867 
	C942.341736,167.173462 942.422852,162.508041 942.831665,156.536819 
	C943.497742,154.696167 943.677490,154.123337 943.736267,153.512527 
	C944.706665,122.111580 951.512878,92.071579 966.574219,64.422043 
	C982.424377,35.324215 1006.434509,15.800013 1038.617310,6.772696 
	C1041.772339,5.887687 1044.808350,4.578464 1047.949829,2.733056 
	C1070.041748,2.000000 1092.083618,2.000000 1115.062744,2.000006 
	C1116.651123,3.231510 1117.025024,5.197122 1118.002075,5.566316 
	C1122.035645,7.090468 1126.306274,7.972461 1130.392944,9.373330 
	C1169.720947,22.854715 1193.657715,51.048771 1206.391357,89.629753 
	C1212.468750,108.043365 1215.890015,127.041412 1216.310425,146.473160 
	C1216.871826,172.431595 1217.607300,198.394409 1217.612549,224.355484 
	C1217.693848,627.955933 1217.670044,1031.556396 1217.663818,1435.156860 
	C1217.663696,1442.821655 1217.580322,1450.486572 1217.180664,1459.462158 
	C1216.521484,1461.310547 1216.336426,1461.886353 1216.270386,1462.500488 
M372.831573,996.730408 
	C372.527161,997.278992 372.342957,997.865417 372.312408,1000.302551 
	C371.927063,1035.600708 373.278168,1070.807007 377.955597,1105.833496 
	C384.617981,1155.723633 397.993896,1203.501831 421.945251,1248.088135 
	C447.507019,1295.672241 482.863251,1333.473877 530.771179,1359.116577 
	C558.932190,1374.189941 588.951172,1384.634521 620.498291,1387.369385 
	C645.404358,1389.528320 670.725586,1389.339966 695.868103,1384.401489 
	C735.157898,1376.684204 771.021118,1361.779053 802.984985,1337.841919 
	C841.522156,1308.982300 868.242737,1270.784424 887.984802,1227.411743 
	C903.244751,1193.885986 913.505005,1158.826538 918.095154,1122.243408 
	C920.946838,1099.515991 924.395813,1076.758545 925.324341,1053.922974 
	C926.349304,1028.715820 925.151001,1003.391724 924.278625,978.140686 
	C923.264893,948.797119 918.720825,919.855469 911.601257,891.405579 
	C895.458862,826.899841 867.398743,768.791199 818.935059,721.915649 
	C775.742126,680.138123 723.933411,657.268005 664.258606,652.089783 
	C641.698181,650.132141 619.208862,651.833679 597.005615,656.073853 
	C550.552063,664.945007 510.573364,686.548401 476.767181,719.343201 
	C437.583893,757.354309 412.758850,804.102356 396.315704,855.576721 
	C381.742493,901.197388 374.538849,948.107239 372.831573,996.730408 
z"/>
<path fill="#000066" opacity="1.000000" stroke="none" 
	d="
M1667.062744,1.999985 
	C1670.121338,3.385911 1672.064575,5.441164 1674.390015,6.059547 
	C1727.312012,20.132004 1755.259888,57.041389 1767.590698,108.055435 
	C1771.906616,125.910866 1773.725586,144.134354 1773.721191,162.540665 
	C1773.687622,305.205109 1773.703003,447.869537 1773.703369,590.533997 
	C1773.703491,595.422852 1773.703369,600.311707 1773.703369,605.644897 
	C1779.870728,605.619324 1782.014771,601.822876 1784.644409,599.172974 
	C1806.731812,576.915222 1829.727661,555.667358 1854.546875,536.476990 
	C1897.198853,503.498291 1942.056519,474.377106 1993.861450,457.499878 
	C2034.066895,444.401581 2075.401611,437.939789 2117.542725,435.944550 
	C2162.296631,433.825531 2206.805908,435.489838 2250.930176,443.886475 
	C2341.324707,461.088196 2419.427490,501.503906 2483.551025,567.833313 
	C2521.454102,607.040222 2550.390381,652.422913 2573.267578,701.787292 
	C2601.119385,761.885254 2617.891602,825.126953 2626.026611,890.673889 
	C2629.057861,915.097778 2631.012939,939.708069 2632.196289,964.294128 
	C2633.460693,990.559448 2634.383545,1016.937195 2633.451416,1043.194702 
	C2630.189697,1135.057373 2615.226074,1224.719238 2580.268799,1310.339478 
	C2556.121826,1369.480957 2524.220703,1423.932007 2480.650635,1470.877808 
	C2410.357178,1546.617676 2323.943848,1592.768188 2221.624268,1607.901245 
	C2196.335449,1611.641479 2170.541992,1613.829834 2145.001953,1613.651978 
	C2074.879395,1613.164062 2007.031494,1600.564575 1943.944214,1568.516479 
	C1907.185425,1549.843018 1873.849976,1525.914551 1844.820190,1496.557617 
	C1823.514771,1475.011963 1803.311646,1452.376465 1782.595947,1430.246704 
	C1780.642456,1428.159546 1778.536011,1426.215454 1774.605347,1422.333252 
	C1774.207275,1428.834717 1773.670410,1432.946411 1773.751587,1437.045898 
	C1774.208130,1460.104492 1772.966064,1482.985596 1767.821045,1505.569580 
	C1758.953979,1544.491943 1738.865723,1575.500610 1703.938965,1595.853271 
	C1679.281250,1610.221924 1652.403564,1615.053711 1624.115967,1613.264893 
	C1604.570068,1612.028809 1585.875488,1607.739014 1568.636475,1598.196655 
	C1534.677368,1579.399292 1515.537109,1549.644287 1506.093262,1512.877563 
	C1500.507935,1491.133301 1498.359619,1468.918945 1498.350586,1446.544922 
	C1498.268066,1241.214722 1498.296997,1035.884644 1498.297363,830.554504 
	C1498.297607,613.891235 1498.241699,397.227905 1498.387695,180.564728 
	C1498.404297,155.888550 1500.561768,131.322113 1506.470337,107.236504 
	C1510.785034,89.648750 1517.047363,72.832443 1526.830811,57.499165 
	C1541.868408,33.931286 1562.235229,17.061995 1589.020264,8.252093 
	C1592.710327,7.038363 1596.139038,5.030350 1599.844482,2.695035 
	C1622.041748,2.000000 1644.083618,2.000000 1667.062744,1.999985 
M2100.040527,1387.092773 
	C2124.752441,1384.285767 2148.482422,1377.921143 2170.829346,1366.925781 
	C2226.996338,1339.290527 2267.726318,1296.040405 2296.378174,1241.067505 
	C2324.470459,1187.167847 2335.676025,1128.771851 2339.476318,1068.802124 
	C2340.987793,1044.946777 2342.974854,1021.016296 2340.481201,996.982849 
	C2338.186035,974.865173 2338.035645,952.498474 2335.146484,930.476929 
	C2332.510498,910.386353 2328.434570,890.358215 2323.295166,870.747559 
	C2310.758301,822.907959 2291.101318,778.304993 2259.700928,739.510498 
	C2231.816650,705.059998 2197.484619,679.454041 2155.548828,664.653137 
	C2125.010986,653.875000 2093.435791,650.581848 2061.104248,651.838318 
	C2008.156128,653.895996 1960.578735,670.555420 1918.441528,702.552551 
	C1876.225952,734.609314 1847.239624,776.794067 1825.888062,824.716125 
	C1801.808472,878.760925 1791.252075,935.914185 1788.636963,994.529236 
	C1787.363525,1023.075500 1788.560059,1051.790894 1789.830078,1080.376709 
	C1791.447876,1116.795898 1798.080811,1152.508057 1808.859985,1187.345215 
	C1826.405029,1244.049316 1856.061035,1292.988159 1902.527832,1330.823364 
	C1959.711304,1377.384644 2026.062866,1392.416016 2100.040527,1387.092773 
z"/>
<path fill="#990000" opacity="1.000000" stroke="none" 
	d="
M3142.168457,506.001343 
	C3152.172607,527.839417 3157.471924,550.068176 3158.304688,573.296204 
	C3158.960449,591.583923 3159.597900,609.885620 3159.603516,628.181335 
	C3159.685059,895.449097 3159.763916,1162.717041 3159.522217,1429.984497 
	C3159.492676,1462.733643 3156.175293,1495.336426 3141.990723,1525.519531 
	C3120.095215,1572.110962 3083.897461,1599.802612 3032.284912,1606.350586 
	C3002.440430,1610.136963 2973.678223,1606.500610 2946.943604,1592.377808 
	C2913.430176,1574.673828 2892.247070,1546.400513 2880.311768,1510.911133 
	C2873.695801,1491.238403 2870.024414,1470.965088 2869.653076,1450.155518 
	C2869.213379,1425.527588 2868.406006,1400.899658 2868.397461,1376.271606 
	C2868.306396,1118.001587 2868.244141,859.731567 2868.479980,601.461792 
	C2868.507324,571.437134 2871.318359,541.493103 2882.809814,513.268188 
	C2903.663818,462.045410 2941.538818,433.335327 2996.840820,427.526062 
	C3020.145752,425.078033 3042.791992,427.412018 3064.632568,435.340332 
	C3099.755615,448.090149 3125.338867,471.810516 3142.168457,506.001343 
z"/>
<path fill="#980000" opacity="1.000000" stroke="none" 
	d="
M3159.514893,157.295410 
	C3158.031006,168.408905 3157.260986,178.752853 3155.078125,188.789581 
	C3146.342285,228.959061 3121.806152,257.025696 3086.234863,275.982758 
	C3036.301514,302.593964 2958.314697,299.593536 2908.135498,252.578766 
	C2893.475830,238.843506 2882.900635,222.387314 2876.789795,203.375412 
	C2867.550293,174.629532 2865.765137,145.251083 2872.517090,115.726387 
	C2881.117676,78.117004 2904.458496,51.186604 2936.192627,30.922873 
	C2960.709961,15.267361 2988.004395,8.064235 3016.870361,8.521102 
	C3058.140625,9.174294 3094.391113,23.231560 3124.012451,52.603897 
	C3144.258789,72.680244 3154.376953,97.639328 3157.638916,125.545433 
	C3158.833008,135.761200 3158.963867,146.101273 3159.514893,157.295410 
z"/>
<path fill="#007327" opacity="1.000000" stroke="none" 
	d="
M943.413574,153.852814 
	C943.677490,154.123337 943.497742,154.696167 942.944458,155.604126 
	C942.565491,155.324570 942.698486,154.729843 943.413574,153.852814 
z"/>
<path fill="#007326" opacity="1.000000" stroke="none" 
	d="
M1216.601074,1462.160522 
	C1216.336426,1461.886353 1216.521484,1461.310547 1217.077881,1460.395508 
	C1217.468872,1460.678833 1217.336060,1461.279663 1216.601074,1462.160522 
z"/>
<path fill="#004B18" opacity="1.000000" stroke="none" 
	d="
M524.137695,1612.379883 
	C524.298523,1612.206055 524.707947,1612.248291 525.695557,1612.507446 
	C526.273865,1612.724487 525.318115,1612.878052 525.318115,1612.878052 
	C525.318115,1612.878052 524.386230,1612.595703 524.137695,1612.379883 
z"/>
<path fill="#000000" opacity="1.000000" stroke="none" 
	d="
M373.339844,995.958679 
	C374.538849,948.107239 381.742493,901.197388 396.315704,855.576721 
	C412.758850,804.102356 437.583893,757.354309 476.767181,719.343201 
	C510.573364,686.548401 550.552063,664.945007 597.005615,656.073853 
	C619.208862,651.833679 641.698181,650.132141 664.258606,652.089783 
	C723.933411,657.268005 775.742126,680.138123 818.935059,721.915649 
	C867.398743,768.791199 895.458862,826.899841 911.601257,891.405579 
	C918.720825,919.855469 923.264893,948.797119 924.278625,978.140686 
	C925.151001,1003.391724 926.349304,1028.715820 925.324341,1053.922974 
	C924.395813,1076.758545 920.946838,1099.515991 918.095154,1122.243408 
	C913.505005,1158.826538 903.244751,1193.885986 887.984802,1227.411743 
	C868.242737,1270.784424 841.522156,1308.982300 802.984985,1337.841919 
	C771.021118,1361.779053 735.157898,1376.684204 695.868103,1384.401489 
	C670.725586,1389.339966 645.404358,1389.528320 620.498291,1387.369385 
	C588.951172,1384.634521 558.932190,1374.189941 530.771179,1359.116577 
	C482.863251,1333.473877 447.507019,1295.672241 421.945251,1248.088135 
	C397.993896,1203.501831 384.617981,1155.723633 377.955597,1105.833496 
	C373.278168,1070.807007 371.927063,1035.600708 372.628510,999.047363 
	C373.346405,997.239197 373.478149,996.627991 373.339844,995.958679 
z"/>
<path fill="#007225" opacity="1.000000" stroke="none" 
	d="
M373.085693,996.344543 
	C373.478149,996.627991 373.346405,997.239197 372.611816,998.140930 
	C372.342957,997.865417 372.527161,997.278992 373.085693,996.344543 
z"/>
<path fill="#000000" opacity="1.000000" stroke="none" 
	d="
M2099.119629,1387.186157 
	C2026.062866,1392.416016 1959.711304,1377.384644 1902.527832,1330.823364 
	C1856.061035,1292.988159 1826.405029,1244.049316 1808.859985,1187.345215 
	C1798.080811,1152.508057 1791.447876,1116.795898 1789.830078,1080.376709 
	C1788.560059,1051.790894 1787.363525,1023.075500 1788.636963,994.529236 
	C1791.252075,935.914185 1801.808472,878.760925 1825.888062,824.716125 
	C1847.239624,776.794067 1876.225952,734.609314 1918.441528,702.552551 
	C1960.578735,670.555420 2008.156128,653.895996 2061.104248,651.838318 
	C2093.435791,650.581848 2125.010986,653.875000 2155.548828,664.653137 
	C2197.484619,679.454041 2231.816650,705.059998 2259.700928,739.510498 
	C2291.101318,778.304993 2310.758301,822.907959 2323.295166,870.747559 
	C2328.434570,890.358215 2332.510498,910.386353 2335.146484,930.476929 
	C2338.035645,952.498474 2338.186035,974.865173 2340.481201,996.982849 
	C2342.974854,1021.016296 2340.987793,1044.946777 2339.476318,1068.802124 
	C2335.676025,1128.771851 2324.470459,1187.167847 2296.378174,1241.067505 
	C2267.726318,1296.040405 2226.996338,1339.290527 2170.829346,1366.925781 
	C2148.482422,1377.921143 2124.752441,1384.285767 2099.119629,1387.186157 
z"/>
</svg>